<svg id="Layer_1" enable-background="new 0 0 256 256" height="512" viewBox="0 0 256 256" width="512" xmlns="http://www.w3.org/2000/svg"><path d="m187.77 252h-144.54v-248h169.54v223c0 13.807-11.193 25-25 25z" fill="#f4efed"/><path d="m43.23 4h10v248h-10z" fill="#fff"/><path d="m202.77 4v223c0 13.807-11.193 25-25 25h10c13.807 0 25-11.193 25-25v-223z" fill="#d6d1cf"/><path d="m172.859 194.618c3.993 3.993 3.993 10.466 0 14.458s-10.466 3.992-14.458 0c-3.992-3.993-3.992-10.466 0-14.458s10.465-3.992 14.458 0z" fill="#ff4397"/><circle cx="187.409" cy="180.068" fill="#ff4397" r="10.224"/><path d="m94.047 183.779h-7.071v-7.071c0-3.965-3.214-7.179-7.179-7.179-3.965 0-7.179 3.214-7.179 7.179v7.071h-7.071c-3.965 0-7.179 3.214-7.179 7.179 0 3.965 3.214 7.18 7.179 7.18h7.071v7.07c0 3.965 3.214 7.179 7.179 7.179 3.965 0 7.179-3.214 7.179-7.179v-7.07h7.071c3.965 0 7.18-3.214 7.18-7.18 0-3.965-3.215-7.179-7.18-7.179z" fill="#fcc24c"/><path d="m111.925 207.181-7.766 7.766c-1.766 1.766-1.766 4.63 0 6.396 1.766 1.766 4.63 1.766 6.396 0l7.766-7.766c1.766-1.766 1.766-4.63 0-6.396-1.766-1.766-4.629-1.766-6.396 0z" fill="#7bac51"/><path d="m138.699 207.181-7.766 7.766c-1.766 1.766-1.766 4.63 0 6.396 1.766 1.766 4.63 1.766 6.396 0l7.766-7.766c1.766-1.766 1.766-4.63 0-6.396-1.766-1.766-4.63-1.766-6.396 0z" fill="#7bac51"/><path d="m64.547 138.056h126.906c2.761 0 5-2.239 5-5v-109.781c0-2.761-2.239-5-5-5h-126.906c-2.761 0-5 2.239-5 5v109.781c0 2.761 2.238 5 5 5z" fill="#ff4397"/><circle cx="128" cy="78.564" fill="#7bac51" r="49.436"/><path d="m128 130c-28.361 0-51.436-23.074-51.436-51.436s23.074-51.437 51.436-51.437 51.436 23.074 51.436 51.437c0 28.362-23.075 51.436-51.436 51.436zm0-98.872c-26.156 0-47.436 21.28-47.436 47.437s21.28 47.435 47.436 47.435 47.436-21.279 47.436-47.436-21.28-47.436-47.436-47.436z" fill="#690589"/><path d="m101.774 103.703c1.352 3.773 7.026 5.191 12.672 3.167s9.127-6.723 7.774-10.496c-1.352-3.773-7.026-5.191-12.672-3.167-5.646 2.023-9.126 6.723-7.774 10.496z" fill="#fcc24c"/><path d="m154.518 60.597-32.006 9.3v-10.721l32.006-9.301z" fill="#fcc24c"/><path d="m133.738 94.326c1.352 3.773 7.026 5.191 12.672 3.167s9.127-6.723 7.774-10.496c-1.352-3.773-7.026-5.191-12.672-3.167s-9.127 6.722-7.774 10.496z" fill="#fcc24c"/><g fill="#690589"><path d="m122.512 71.897c-.428 0-.851-.138-1.201-.4-.503-.378-.799-.971-.799-1.6v-10.721c0-.89.588-1.672 1.442-1.921l32.005-9.301c.604-.174 1.256-.057 1.76.321.503.378.799.971.799 1.6v10.722c0 .89-.588 1.672-1.442 1.921l-32.005 9.301c-.184.052-.373.078-.559.078zm2-11.219v6.556l28.006-8.139v-6.556zm30.006-.081h.01z"/><path d="m122.512 99.696c-1.104 0-2-.896-2-2v-27.799c0-1.104.896-2 2-2s2 .896 2 2v27.799c0 1.105-.896 2-2 2z"/><path d="m154.518 90.373c-1.104 0-2-.896-2-2v-27.8c0-1.104.896-2 2-2s2 .896 2 2v27.8c0 1.105-.896 2-2 2z"/><path d="m141.264 100.428c-4.465 0-8.171-1.973-9.409-5.428-1.752-4.886 2.194-10.619 8.982-13.054 6.79-2.433 13.479-.511 15.23 4.376s-2.195 10.62-8.983 13.054c-1.989.713-3.97 1.052-5.82 1.052zm5.405-15.525c-1.409 0-2.952.26-4.482.809-4.521 1.621-7.528 5.257-6.566 7.938.962 2.683 5.593 3.581 10.114 1.96s7.528-5.256 6.567-7.938c-.636-1.775-2.879-2.769-5.633-2.769z"/><path d="m109.33 109.794c-1.149 0-2.266-.13-3.315-.393-3.062-.766-5.237-2.55-6.124-5.023-1.751-4.888 2.195-10.621 8.983-13.054 3.097-1.111 6.332-1.344 9.105-.648 3.062.766 5.237 2.55 6.124 5.023s.34 5.233-1.539 7.77c-1.701 2.297-4.345 4.174-7.443 5.284-1.926.69-3.903 1.041-5.791 1.041zm-5.674-6.766c.569 1.587 2.329 2.242 3.328 2.492 1.983.495 4.457.303 6.787-.533 2.328-.834 4.361-2.256 5.579-3.899.613-.827 1.556-2.452.987-4.039s-2.329-2.242-3.328-2.492c-1.984-.496-4.459-.302-6.786.533-4.52 1.62-7.528 5.256-6.567 7.938z"/><path d="m212.77 154.331h-169.54c-1.104 0-2-.896-2-2v-148.331c0-1.104.896-2 2-2h169.54c1.104 0 2 .896 2 2v148.331c0 1.105-.896 2-2 2zm-167.54-4h165.54v-144.331h-165.54z"/><path d="m191.453 140.056h-126.906c-3.859 0-7-3.141-7-7v-109.781c0-3.859 3.141-7 7-7h126.906c3.859 0 7 3.141 7 7v109.78c0 3.86-3.141 7.001-7 7.001zm-126.906-119.781c-1.654 0-3 1.346-3 3v109.78c0 1.654 1.346 3 3 3h126.906c1.654 0 3-1.346 3-3v-109.78c0-1.654-1.346-3-3-3z"/><path d="m187.77 254h-144.54c-1.104 0-2-.896-2-2v-248c0-1.104.896-2 2-2h169.54c1.104 0 2 .896 2 2v223c0 14.888-12.113 27-27 27zm-142.54-4h142.54c12.683 0 23-10.317 23-23v-221h-165.54z"/><path d="m51.23 47.326c-1.104 0-2-.896-2-2v-12c0-1.104.896-2 2-2s2 .896 2 2v12c0 1.105-.895 2-2 2z"/><path d="m79.797 214.388c-5.062 0-9.18-4.118-9.18-9.18v-5.07h-5.07c-5.062 0-9.18-4.118-9.18-9.18s4.118-9.18 9.18-9.18h5.07v-5.07c0-5.062 4.118-9.18 9.18-9.18s9.18 4.118 9.18 9.18v5.07h5.07c5.062 0 9.18 4.118 9.18 9.18s-4.118 9.18-9.18 9.18h-5.07v5.07c0 5.062-4.119 9.18-9.18 9.18zm-14.25-28.61c-2.856 0-5.18 2.323-5.18 5.18s2.323 5.18 5.18 5.18h7.07c1.104 0 2 .896 2 2v7.07c0 2.856 2.323 5.18 5.18 5.18s5.18-2.323 5.18-5.18v-7.07c0-1.104.896-2 2-2h7.07c2.856 0 5.18-2.323 5.18-5.18s-2.323-5.18-5.18-5.18h-7.07c-1.104 0-2-.896-2-2v-7.07c0-2.856-2.323-5.18-5.18-5.18s-5.18 2.323-5.18 5.18v7.07c0 1.104-.896 2-2 2z"/><path d="m165.63 214.065c-3.131 0-6.261-1.191-8.644-3.574-4.766-4.766-4.766-12.521 0-17.287 4.767-4.766 12.522-4.764 17.287 0 4.766 4.766 4.766 12.521 0 17.287-2.382 2.383-5.513 3.574-8.643 3.574zm0-20.437c-2.106 0-4.212.802-5.815 2.404-3.205 3.207-3.205 8.424 0 11.631 3.207 3.205 8.424 3.203 11.631 0 3.205-3.207 3.205-8.424 0-11.631-1.604-1.602-3.71-2.404-5.816-2.404z"/><path d="m187.409 192.286c-3.13 0-6.261-1.191-8.644-3.574-4.766-4.766-4.766-12.521 0-17.287s12.521-4.766 17.286 0c4.767 4.766 4.767 12.521 0 17.287-2.382 2.383-5.512 3.574-8.642 3.574zm0-20.437c-2.106 0-4.212.802-5.815 2.404-3.205 3.207-3.205 8.424 0 11.631 3.207 3.205 8.423 3.205 11.63 0 3.206-3.207 3.206-8.424 0-11.631-1.603-1.603-3.709-2.404-5.815-2.404z"/><path d="m107.357 224.664c-1.67 0-3.341-.636-4.612-1.907-2.543-2.542-2.543-6.68-.001-9.224l7.768-7.766c1.231-1.232 2.869-1.911 4.611-1.911 1.743 0 3.381.679 4.613 1.911 1.231 1.231 1.91 2.869 1.91 4.611s-.679 3.38-1.911 4.612l-7.766 7.766c-1.271 1.272-2.942 1.908-4.612 1.908zm7.766-16.808c-.673 0-1.307.263-1.782.739-.001 0-.001 0-.001 0l-7.767 7.766c-.982.983-.983 2.584 0 3.567.984.984 2.584.984 3.568 0l7.766-7.766c.477-.477.739-1.11.739-1.784s-.263-1.307-.739-1.782c-.476-.477-1.11-.74-1.784-.74zm-3.197-.674h.01z"/><path d="m134.131 224.664c-1.67 0-3.341-.636-4.612-1.907-2.543-2.542-2.543-6.68-.001-9.224l7.768-7.766c1.231-1.232 2.869-1.911 4.611-1.911 1.743 0 3.381.679 4.613 1.911 1.231 1.231 1.91 2.869 1.91 4.611s-.679 3.38-1.911 4.612l-7.766 7.766c-1.271 1.272-2.942 1.908-4.612 1.908zm7.765-16.808c-.673 0-1.307.263-1.782.739-.001 0-.001 0-.001 0l-7.767 7.766c-.982.983-.983 2.584 0 3.567.984.984 2.584.984 3.568 0l7.766-7.766c.477-.477.739-1.11.739-1.784s-.263-1.307-.739-1.782c-.476-.477-1.11-.74-1.784-.74zm-3.197-.674h.01z"/><path d="m155.406 254c-1.104 0-2-.896-2-2v-18.145c0-1.104.896-2 2-2s2 .896 2 2v18.145c0 1.104-.895 2-2 2z"/><path d="m165.63 254c-1.104 0-2-.896-2-2v-18.145c0-1.104.896-2 2-2s2 .896 2 2v18.145c0 1.104-.896 2-2 2z"/><path d="m175.854 254c-1.104 0-2-.896-2-2v-18.145c0-1.104.896-2 2-2s2 .896 2 2v18.145c0 1.104-.896 2-2 2z"/><path d="m186.077 254c-1.104 0-2-.896-2-2v-18.145c0-1.104.896-2 2-2s2 .896 2 2v18.145c0 1.104-.895 2-2 2z"/></g></svg>